<svg height="448pt" viewBox="0 -8 448 448" width="448pt" xmlns="http://www.w3.org/2000/svg"><path d="m144.855469 117.976562c-12.066407-12.644531-11.753907-32.632812.703125-44.894531 12.453125-12.261719 32.445312-12.261719 44.898437 0 12.457031 12.261719 12.769531 32.25.703125 44.894531 13.679688 7.4375 22.839844 21.117188 24.503906 36.597657 22.976563-25.644531 21.542969-64.878907-3.25-88.777344-24.789062-23.902344-64.046874-23.902344-88.835937 0-24.792969 23.898437-26.226563 63.132813-3.25 88.777344 1.773437-15.449219 10.914063-29.082031 24.527344-36.597657zm0 0"/><path d="m16 352h24v-240c-13.253906 0-24 10.746094-24 24zm0 0"/><path d="m16 368h416v16h-416zm0 0"/><path d="m184 96c0 8.835938-7.164062 16-16 16s-16-7.164062-16-16 7.164062-16 16-16 16 7.164062 16 16zm0 0"/><path d="m168 128c-17.671875 0-32 14.328125-32 32v7.34375c19.773438 11.542969 44.226562 11.542969 64 0v-7.34375c.035156-8.496094-3.328125-16.65625-9.335938-22.664062-6.007812-6.007813-14.167968-9.371094-22.664062-9.335938zm0 0"/><path d="m432 136c0-13.253906-10.746094-24-24-24v240h24zm0 0"/><path d="m184 400h80.007812v8h-80.007812zm0 0"/><path d="m56 352h336v-272h-56c-13.253906 0-24-10.746094-24-24v-56h-232c-13.253906 0-24 10.746094-24 24zm192-32h-32v-16h32zm112 0h-96v-16h96zm0-80h-192v-16h192zm-48-104h48v16h-48zm-32 0h16v16h-16zm0 32h80v16h-80zm-112-136c44.183594 0 80 35.816406 80 80s-35.816406 80-80 80-80-35.816406-80-80c.046875-44.164062 35.835938-79.953125 80-80zm-80 192h64v16h-64zm0 40h272v16h-272zm0 40h112v16h-112zm0 0"/><path d="m0 424c0 4.417969 3.582031 8 8 8h432c4.417969 0 8-3.582031 8-8v-24h-168v8c0 8.835938-7.164062 16-16 16h-80c-8.835938 0-16-7.164062-16-16v-8h-168zm0 0"/><path d="m380.6875 64-52.6875-52.6875v44.6875c0 4.417969 3.582031 8 8 8zm0 0"/></svg>