<svg height="512pt" viewBox="0 0 512 512" width="512pt" xmlns="http://www.w3.org/2000/svg"><path d="m409.601562 426.667969h-153.601562c-4.710938 0-8.535156-3.824219-8.535156-8.535157v-51.199218c0-4.710938 3.824218-8.535156 8.535156-8.535156h153.601562c4.707032 0 8.53125 3.824218 8.53125 8.535156v51.199218c0 4.710938-3.824218 8.535157-8.53125 8.535157zm-145.066406-17.066407h136.53125v-34.136718h-136.53125zm0 0"/><path d="m409.601562 256h-153.601562c-4.710938 0-8.535156-3.824219-8.535156-8.535156v-51.199219c0-4.710937 3.824218-8.53125 8.535156-8.53125h153.601562c4.707032 0 8.53125 3.820313 8.53125 8.53125v51.199219c0 4.710937-3.824218 8.535156-8.53125 8.535156zm-145.066406-17.066406h136.53125v-34.132813h-136.53125zm0 0"/><path d="m460.800781 469.332031h-409.601562c-4.710938 0-8.53125-3.820312-8.53125-8.53125v-307.199219c0-4.710937 3.820312-8.535156 8.53125-8.535156h409.601562c4.710938 0 8.53125 3.824219 8.53125 8.535156v307.199219c0 4.710938-3.820312 8.53125-8.53125 8.53125zm-401.066406-17.066406h392.53125v-290.132813h-392.53125zm0 0"/><path d="m162.132812 341.332031h-68.265624c-4.710938 0-8.535157-3.820312-8.535157-8.53125 0-4.710937 3.824219-8.535156 8.535157-8.535156h68.265624c4.710938 0 8.535157 3.824219 8.535157 8.535156 0 4.710938-3.824219 8.53125-8.535157 8.53125zm0 0"/><path d="m162.132812 375.464844h-68.265624c-4.710938 0-8.535157-3.820313-8.535157-8.53125 0-4.710938 3.824219-8.535156 8.535157-8.535156h68.265624c4.710938 0 8.535157 3.824218 8.535157 8.535156 0 4.710937-3.824219 8.53125-8.535157 8.53125zm0 0"/><path d="m162.132812 409.601562h-68.265624c-4.710938 0-8.535157-3.824218-8.535157-8.535156 0-4.710937 3.824219-8.53125 8.535157-8.53125h68.265624c4.710938 0 8.535157 3.820313 8.535157 8.53125 0 4.710938-3.824219 8.535156-8.535157 8.535156zm0 0"/><path d="m128 298.667969c-13.953125 0-27.382812-4.207031-38.859375-12.167969-2.460937-1.707031-3.839844-4.566406-3.652344-7.554688.707031-11.246093 5.988281-21.808593 14.410157-29.234374-3.925782-5.648438-6.03125-12.332032-6.03125-19.3125 0-10.152344 4.480468-19.71875 12.289062-26.222657 7.796875-6.5 18.082031-9.1875 28.199219-7.328125 13.339843 2.441406 24.183593 12.96875 27 26.207032 2 9.386718.035156 18.976562-5.253907 26.648437 8.429688 7.433594 13.703126 17.988281 14.421876 29.242187.1875 2.980469-1.195313 5.847657-3.652344 7.542969-11.480469 7.972657-24.917969 12.179688-38.871094 12.179688zm-24.710938-23.449219c15.101563 8.378906 34.328126 8.371094 49.421876 0-1.570313-6.050781-5.332032-11.332031-10.757813-14.890625-2.910156-1.914063-4.796875-5.011719-5.164063-8.5-.367187-3.535156.855469-7 3.34375-9.515625 4.113282-4.148438 5.761719-9.882812 4.523438-15.710938-1.363281-6.441406-6.859375-11.765624-13.363281-12.960937-5.195313-.957031-10.246094.339844-14.207031 3.644531-3.910157 3.257813-6.152344 8.039063-6.152344 13.113282 0 4.472656 1.757812 8.707031 4.941406 11.914062 2.492188 2.507812 3.710938 5.972656 3.335938 9.507812-.367188 3.496094-2.253907 6.59375-5.171876 8.515626-5.417968 3.558593-9.191406 8.832031-10.75 14.882812zm0 0"/><path d="m204.800781 469.332031h-153.601562c-4.710938 0-8.53125-3.820312-8.53125-8.53125v-307.199219c0-4.710937 3.820312-8.535156 8.53125-8.535156h153.601562c4.710938 0 8.53125 3.824219 8.53125 8.535156v307.199219c0 4.710938-3.820312 8.53125-8.53125 8.53125zm-145.066406-17.066406h136.53125v-290.132813h-136.53125zm0 0"/><path d="m409.601562 298.667969h-153.601562c-4.710938 0-8.535156-3.824219-8.535156-8.535157 0-4.710937 3.824218-8.53125 8.535156-8.53125h153.601562c4.707032 0 8.53125 3.820313 8.53125 8.53125 0 4.710938-3.824218 8.535157-8.53125 8.535157zm0 0"/><path d="m366.933594 332.800781h-110.933594c-4.710938 0-8.535156-3.824219-8.535156-8.535156s3.824218-8.53125 8.535156-8.53125h110.933594c4.710937 0 8.53125 3.820313 8.53125 8.53125s-3.820313 8.535156-8.53125 8.535156zm0 0"/><path d="m473.601562 512h-435.203124c-21.167969 0-38.398438-17.230469-38.398438-38.398438v-435.203124c0-21.167969 17.230469-38.398438 38.398438-38.398438h435.203124c21.167969 0 38.398438 17.230469 38.398438 38.398438v435.203124c0 21.167969-17.230469 38.398438-38.398438 38.398438zm-435.203124-494.933594c-11.757813 0-21.332032 9.574219-21.332032 21.332032v435.203124c0 11.757813 9.574219 21.332032 21.332032 21.332032h435.203124c11.765626 0 21.332032-9.574219 21.332032-21.332032v-435.203124c0-11.757813-9.574219-21.332032-21.332032-21.332032zm0 0"/><path d="m76.800781 85.332031h-34.132812c-4.710938 0-8.535157-3.820312-8.535157-8.53125v-34.132812c0-4.710938 3.824219-8.535157 8.535157-8.535157h34.132812c4.710938 0 8.53125 3.824219 8.53125 8.535157v34.132812c0 4.710938-3.820312 8.53125-8.53125 8.53125zm-25.601562-17.066406h17.066406v-17.066406h-17.066406zm0 0"/><path d="m145.066406 85.332031h-34.132812c-4.710938 0-8.535156-3.820312-8.535156-8.53125v-34.132812c0-4.710938 3.824218-8.535157 8.535156-8.535157h34.132812c4.710938 0 8.535156 3.824219 8.535156 8.535157v34.132812c0 4.710938-3.824218 8.53125-8.535156 8.53125zm-25.601562-17.066406h17.070312v-17.066406h-17.070312zm0 0"/><path d="m213.332031 85.332031h-34.132812c-4.710938 0-8.53125-3.820312-8.53125-8.53125v-34.132812c0-4.710938 3.820312-8.535157 8.53125-8.535157h34.132812c4.710938 0 8.535157 3.824219 8.535157 8.535157v34.132812c0 4.710938-3.824219 8.53125-8.535157 8.53125zm-25.597656-17.066406h17.066406v-17.066406h-17.066406zm0 0"/><path d="m503.464844 119.464844h-494.929688c-4.710937 0-8.535156-3.820313-8.535156-8.53125v-72.535156c0-21.167969 17.230469-38.398438 38.398438-38.398438h435.203124c21.167969 0 38.398438 17.230469 38.398438 38.398438v72.535156c0 4.710937-3.824219 8.53125-8.535156 8.53125zm-486.398438-17.066406h477.867188v-64c0-11.757813-9.574219-21.332032-21.332032-21.332032h-435.203124c-11.757813 0-21.332032 9.574219-21.332032 21.332032zm0 0"/></svg>